<?xml version="1.0" encoding="utf-8"?>
<!-- Generator: Adobe Illustrator 16.0.4, SVG Export Plug-In . SVG Version: 6.00 Build 0)  -->
<!DOCTYPE svg PUBLIC "-//W3C//DTD SVG 1.1//EN" "http://www.w3.org/Graphics/SVG/1.1/DTD/svg11.dtd">
<svg version="1.1" id="Layer_1" xmlns="http://www.w3.org/2000/svg" xmlns:xlink="http://www.w3.org/1999/xlink" x="0px" y="0px"
	 width="32px" height="32px" viewBox="0 0 32 32" enable-background="new 0 0 32 32" xml:space="preserve">
<g id="Layer_1_1_">
</g>
<g id="magnifying_x5F_glass">
	<g>
		<path fill="#4E4E50" d="M19.745,20.66c1.853,1.852,4.414,4.415,5.685,5.688c0.434-0.438,0.491-0.492,0.922-0.922
			c-1.274-1.27-3.834-3.836-5.688-5.688C20.37,20.066,20.064,20.371,19.745,20.66z"/>
		<path fill="#4E4E50" d="M0,11.864c0,6.538,5.324,11.858,11.867,11.858c1.562,0,3.047-0.32,4.414-0.875L25.43,32l6.569-6.574
			l-9.144-9.145c0.551-1.367,0.871-2.852,0.871-4.418C23.727,5.32,18.404,0,11.866,0C5.323,0-0.001,5.32,0,11.864z M3.995,11.864
			c0-4.336,3.531-7.867,7.871-7.867c4.332,0,7.862,3.531,7.862,7.867c0,4.332-3.53,7.862-7.862,7.862
			C7.526,19.727,3.995,16.195,3.995,11.864z"/>
	</g>
</g>
</svg>
