<?xml version="1.0" encoding="utf-8"?>
<!-- Generator: Adobe Illustrator 16.0.0, SVG Export Plug-In . SVG Version: 6.00 Build 0)  -->
<!DOCTYPE svg PUBLIC "-//W3C//DTD SVG 1.1//EN" "http://www.w3.org/Graphics/SVG/1.1/DTD/svg11.dtd">
<svg version="1.1" id="vimeo-icon" xmlns="http://www.w3.org/2000/svg" xmlns:xlink="http://www.w3.org/1999/xlink" x="0px" y="0px"
	 width="60px" height="60px" viewBox="0 0 60 60" enable-background="new 0 0 60 60" xml:space="preserve">
<circle fill="#CDE0DC" cx="30" cy="30" r="28.8"/>
<path fill="#FFFFFF" d="M15,24.034l1.219,1.598c0,0,2.513-1.98,3.35-0.99c0.838,0.99,4.036,12.948,5.103,15.153
	c0.931,1.936,3.501,4.492,6.32,2.666c2.816-1.826,12.182-9.822,13.859-19.266c1.674-9.44-11.271-7.463-12.645,0.762
	c3.427-2.058,5.256,0.836,3.502,4.112c-1.75,3.273-3.352,5.408-4.188,5.408s-1.479-2.188-2.438-6.019
	C28.093,23.5,28.1,16.371,23.982,17.179C20.103,17.941,15,24.034,15,24.034z"/>
</svg>
