<?xml version="1.0" encoding="utf-8"?>
<!-- Generator: Adobe Illustrator 16.0.0, SVG Export Plug-In . SVG Version: 6.00 Build 0)  -->
<!DOCTYPE svg PUBLIC "-//W3C//DTD SVG 1.1//EN" "http://www.w3.org/Graphics/SVG/1.1/DTD/svg11.dtd">
<svg version="1.1" id="youtube-icon" xmlns="http://www.w3.org/2000/svg" xmlns:xlink="http://www.w3.org/1999/xlink" x="0px"
	 y="0px" width="60px" height="60px" viewBox="0 0 60 60" enable-background="new 0 0 60 60" xml:space="preserve">
<circle fill="#A0B2AB" cx="30" cy="30" r="28.8"/>
<path fill="#FFFFFF" d="M44.375,22.637c-0.305-1.633-1.664-2.851-3.225-3.002c-3.729-0.239-7.474-0.433-11.208-0.436
	c-3.735-0.002-7.463,0.188-11.192,0.423c-1.567,0.152-2.927,1.364-3.23,3.003C15.173,24.985,15,27.368,15,29.75
	c0,2.383,0.173,4.766,0.52,7.125c0.304,1.639,1.663,2.996,3.23,3.146c3.73,0.234,7.456,0.477,11.192,0.477
	c3.734,0,7.479-0.211,11.208-0.451c1.561-0.152,2.92-1.55,3.225-3.182c0.35-2.356,0.523-4.736,0.523-7.117
	C44.898,27.372,44.725,24.994,44.375,22.637z M26.561,34.044v-8.688l8.091,4.344L26.561,34.044z"/>
</svg>
