<?xml version="1.0" encoding="utf-8"?>
<!-- Generator: Adobe Illustrator 16.0.4, SVG Export Plug-In . SVG Version: 6.00 Build 0)  -->
<!DOCTYPE svg PUBLIC "-//W3C//DTD SVG 1.1//EN" "http://www.w3.org/Graphics/SVG/1.1/DTD/svg11.dtd">
<svg version="1.1" id="facebook-square-icon" xmlns="http://www.w3.org/2000/svg" xmlns:xlink="http://www.w3.org/1999/xlink"
	 x="0px" y="0px" width="60px" height="60px" viewBox="0 0 60 60" enable-background="new 0 0 60 60" xml:space="preserve">
<circle fill="#323A24" cx="30" cy="30" r="28.8"/>
<path fill="#FFFFFF" d="M40,15H20c-2.75,0-5,2.25-5,5v20c0,2.752,2.25,5,5,5h20c2.75,0,5-2.248,5-5V20.001C45,17.251,42.75,15,40,15
	L40,15z M40.506,30h-4.881v13.125H30V30h-2.711v-4.294H30v-2.789c0-3.79,1.635-6.043,6.09-6.043h5.135v4.646h-4.193
	c-1.245-0.002-1.399,0.649-1.399,1.861l-0.007,2.325h5.625L40.506,30L40.506,30z"/>
</svg>
