<?xml version="1.0" encoding="utf-8"?>
<!-- Generator: Adobe Illustrator 16.0.4, SVG Export Plug-In . SVG Version: 6.00 Build 0)  -->
<!DOCTYPE svg PUBLIC "-//W3C//DTD SVG 1.1//EN" "http://www.w3.org/Graphics/SVG/1.1/DTD/svg11.dtd">
<svg version="1.1" id="googleplus-icon" xmlns="http://www.w3.org/2000/svg" xmlns:xlink="http://www.w3.org/1999/xlink" x="0px"
	 y="0px" width="60px" height="60px" viewBox="0 0 60 60" enable-background="new 0 0 60 60" xml:space="preserve">
<circle fill="#3D4B21" cx="30" cy="30" r="28.8"/>
<path fill="#FFFFFF" d="M15.024,40.479c-0.007-0.074-0.013-0.148-0.017-0.224C15.011,40.33,15.017,40.404,15.024,40.479z
	 M21.912,31.557c2.695,0.08,4.504-2.715,4.039-6.246c-0.465-3.53-3.029-6.362-5.725-6.443c-2.696-0.08-4.504,2.622-4.039,6.153
	C16.652,28.549,19.215,31.477,21.912,31.557z M45,22.5V20c0-2.75-2.25-5-5-5H20c-2.704,0-4.922,2.175-4.997,4.861
	c1.709-1.505,4.082-2.764,6.529-2.764c2.616,0,10.466,0,10.466,0l-2.342,1.981h-3.318c2.201,0.844,3.374,3.402,3.374,6.027
	c0,2.204-1.225,4.1-2.956,5.449c-1.689,1.314-2.009,1.865-2.009,2.984c0,0.954,1.809,2.578,2.755,3.246
	c2.765,1.949,3.659,3.758,3.659,6.78c0,0.481-0.059,0.962-0.178,1.435h9.017C42.751,45,45,42.751,45,39.999V24.375h-5.625V30H37.5
	v-5.625h-5.625V22.5H37.5v-5.625h1.875V22.5L45,22.5L45,22.5z M20.446,37.439c0.633,0,1.213-0.018,1.814-0.018
	c-0.795-0.771-1.425-1.717-1.425-2.882c0-0.691,0.222-1.357,0.531-1.948c-0.316,0.021-0.638,0.028-0.97,0.028
	c-2.178,0-4.028-0.705-5.397-1.87v1.97l0,5.909C16.566,37.887,18.424,37.439,20.446,37.439L20.446,37.439z M15.1,40.994
	c-0.033-0.16-0.058-0.322-0.074-0.487C15.042,40.672,15.068,40.834,15.1,40.994z M28.343,42.916
	c-0.441-1.724-2.005-2.578-4.186-4.09c-0.793-0.256-1.667-0.406-2.604-0.416c-2.625-0.028-5.071,1.023-6.451,2.589
	C15.568,43.275,17.593,45,20,45h8.392c0.053-0.326,0.079-0.663,0.079-1.009C28.472,43.624,28.426,43.265,28.343,42.916z"/>
</svg>
