<?xml version="1.0" encoding="utf-8"?>
<!-- Generator: Adobe Illustrator 16.0.4, SVG Export Plug-In . SVG Version: 6.00 Build 0)  -->
<!DOCTYPE svg PUBLIC "-//W3C//DTD SVG 1.1//EN" "http://www.w3.org/Graphics/SVG/1.1/DTD/svg11.dtd">
<svg version="1.1" id="mail-icon" xmlns="http://www.w3.org/2000/svg" xmlns:xlink="http://www.w3.org/1999/xlink" x="0px" y="0px"
	 width="60px" height="60px" viewBox="0 0 60 60" enable-background="new 0 0 60 60" xml:space="preserve">
<circle fill="#3D4B21" cx="30" cy="30" r="28.8"/>
<path fill="#FFFFFF" d="M30,15c-8.284,0-15,6.716-15,15s6.716,15,15,15s15-6.716,15-15S38.284,15,30,15z M22.5,22.5h15
	c0.268,0,0.527,0.058,0.766,0.166L30,32.31l-8.266-9.644C21.973,22.557,22.232,22.5,22.5,22.5L22.5,22.5z M20.625,35.625v-11.25
	c0-0.039,0.001-0.078,0.004-0.117l5.498,6.414l-5.438,5.438C20.647,35.953,20.625,35.791,20.625,35.625L20.625,35.625z M37.5,37.5
	h-15c-0.166,0-0.328-0.021-0.484-0.064l5.335-5.336L30,35.19l2.648-3.091l5.336,5.336C37.828,37.478,37.666,37.5,37.5,37.5z
	 M39.375,35.625c0,0.166-0.021,0.328-0.064,0.484l-5.438-5.438l5.498-6.414c0.002,0.039,0.004,0.078,0.004,0.117V35.625
	L39.375,35.625z"/>
</svg>
