<?xml version="1.0" encoding="utf-8"?>
<!-- Generator: Adobe Illustrator 16.0.4, SVG Export Plug-In . SVG Version: 6.00 Build 0)  -->
<!DOCTYPE svg PUBLIC "-//W3C//DTD SVG 1.1//EN" "http://www.w3.org/Graphics/SVG/1.1/DTD/svg11.dtd">
<svg version="1.1" id="twitter-icon" xmlns="http://www.w3.org/2000/svg" xmlns:xlink="http://www.w3.org/1999/xlink" x="0px"
	 y="0px" width="60px" height="60px" viewBox="0 0 60 60" enable-background="new 0 0 60 60" xml:space="preserve">
<circle fill="#323A24" cx="30" cy="30" r="28.8"/>
<path fill="#FFFFFF" d="M45,20.605c-1.104,0.493-2.29,0.825-3.535,0.975c1.271-0.767,2.246-1.979,2.707-3.425
	c-1.189,0.709-2.507,1.225-3.908,1.502c-1.123-1.203-2.723-1.955-4.493-1.955c-3.399,0-6.155,2.771-6.155,6.191
	c0,0.485,0.055,0.958,0.16,1.411c-5.116-0.258-9.65-2.723-12.687-6.469c-0.53,0.915-0.833,1.978-0.833,3.112
	c0,2.148,1.086,4.043,2.738,5.153c-1.009-0.032-1.958-0.311-2.788-0.774c0,0.026,0,0.052,0,0.078c0,3,2.122,5.502,4.938,6.07
	c-0.517,0.142-1.06,0.217-1.622,0.217c-0.396,0-0.782-0.039-1.158-0.11c0.784,2.459,3.057,4.249,5.75,4.3
	c-2.106,1.66-4.76,2.649-7.644,2.649c-0.497,0-0.987-0.029-1.468-0.087c2.724,1.758,5.959,2.782,9.435,2.782
	c11.321,0,17.512-9.434,17.512-17.615c0-0.269-0.006-0.535-0.019-0.801C43.131,22.937,44.175,21.846,45,20.605z"/>
</svg>
